<?xml version="1.0" standalone="no"?><!DOCTYPE svg PUBLIC "-//W3C//DTD SVG 1.1//EN" "http://www.w3.org/Graphics/SVG/1.1/DTD/svg11.dtd"><svg t="1719199848482" class="icon" viewBox="0 0 1024 1024" version="1.1" xmlns="http://www.w3.org/2000/svg" p-id="4230" xmlns:xlink="http://www.w3.org/1999/xlink" width="256" height="256"><path d="M993.745455 849.454545c-39.563636-39.563636-104.727273-39.563636-144.29091 0-16.290909 16.290909-25.6 39.563636-27.927272 60.509091h-20.945455c-39.563636 0-69.818182-32.581818-69.818182-69.818181V837.818182 286.254545c0-67.490909-55.854545-121.018182-121.018181-121.018181S488.727273 221.090909 488.727273 286.254545v125.672728c0 46.545455-37.236364 83.781818-83.781818 83.781818s-83.781818-37.236364-83.781819-83.781818V123.345455c0-67.490909-55.854545-121.018182-121.018181-121.018182-65.163636 0-118.690909 51.2-121.018182 116.363636-18.618182 4.654545-34.909091 11.636364-48.872728 25.6-39.563636 39.563636-39.563636 104.727273 0 144.290909 20.945455 20.945455 46.545455 30.254545 72.145455 30.254546s51.2-9.309091 72.145455-30.254546c39.563636-39.563636 39.563636-104.727273 0-144.290909-13.963636-11.636364-30.254545-20.945455-46.545455-25.6 2.327273-37.236364 32.581818-65.163636 69.818182-65.163636 39.563636 0 69.818182 32.581818 69.818182 69.818182v290.90909c0 74.472727 60.509091 134.981818 134.981818 134.981819s134.981818-60.509091 134.981818-134.981819v-130.327272c0-37.236364 32.581818-69.818182 69.818182-69.818182 39.563636 0 69.818182 32.581818 69.818182 69.818182V837.818182c0 67.490909 55.854545 121.018182 121.018181 121.018182h27.927273c4.654545 11.636364 11.636364 23.272727 20.945455 32.581818 20.945455 20.945455 46.545455 30.254545 72.145454 30.254545s51.2-9.309091 72.145455-30.254545c41.890909-39.563636 41.890909-102.4 2.327273-141.963637zM137.309091 181.527273c18.618182 18.618182 18.618182 51.2 0 72.145454-18.618182 18.618182-51.2 18.618182-72.145455 0-18.618182-20.945455-18.618182-53.527273 0-72.145454 9.309091-9.309091 23.272727-13.963636 34.909091-13.963637s27.927273 2.327273 37.236364 13.963637z m821.527273 774.981818c-18.618182 18.618182-51.2 18.618182-72.145455 0-18.618182-18.618182-18.618182-51.2 0-72.145455 9.309091-9.309091 23.272727-13.963636 34.909091-13.963636 13.963636 0 25.6 4.654545 34.909091 13.963636 20.945455 20.945455 20.945455 51.2 2.327273 72.145455z" p-id="4231"></path></svg>